<svg xmlns="http://www.w3.org/2000/svg" viewBox="0 0 64 64" width="64" height="64">
  <defs>
    <linearGradient id="g" x1="0" y1="0" x2="1" y2="1">
      <stop offset="0" stop-color="#DCA06D"/>
      <stop offset="1" stop-color="#A55B4B"/>
    </linearGradient>
  </defs>
  <rect width="64" height="64" rx="15" fill="#210F37"/>
  <g fill="none" stroke="url(#g)" stroke-width="3" stroke-linecap="round" stroke-linejoin="round">
    <circle cx="32" cy="27" r="17"/>
    <line x1="32" y1="10" x2="32" y2="44"/>
    <line x1="15" y1="27" x2="49" y2="27"/>
    <line x1="20" y1="15" x2="44" y2="39"/>
    <line x1="44" y1="15" x2="20" y2="39"/>
    <path d="M22 52 L32 27 L42 52"/>
    <line x1="18" y1="52" x2="46" y2="52"/>
  </g>
  <circle cx="32" cy="27" r="3.4" fill="url(#g)"/>
  <g fill="url(#g)">
    <circle cx="32" cy="10" r="2.8"/><circle cx="32" cy="44" r="2.8"/>
    <circle cx="15" cy="27" r="2.8"/><circle cx="49" cy="27" r="2.8"/>
    <circle cx="20" cy="15" r="2.4"/><circle cx="44" cy="15" r="2.4"/>
    <circle cx="20" cy="39" r="2.4"/><circle cx="44" cy="39" r="2.4"/>
  </g>
</svg>
